<svg width="1400" height="980" viewBox="0 0 1400 980" fill="none" xmlns="http://www.w3.org/2000/svg">
  <g clip-path="url(#clip0)">
    <path d="M1400 0H0V980H1400V0Z" fill="#002535" />
    <g opacity="0.6">
      <path d="M961.3 436.9L965.8 439.8L970.7 437.8L969.3 443L972.8 447L967.4 447.3L964.6 451.8L962.7 446.9L957.5 445.6L961.7 442.2L961.3 436.9Z" fill="#FDFF9E" />
      <path d="M1078.8 583.6L1083.3 586.5L1088.2 584.5L1086.8 589.6L1090.3 593.7L1085 594L1082.2 598.5L1080.3 593.5L1075.1 592.3L1079.2 588.9L1078.8 583.6Z" fill="#FDFF9E" />
      <path d="M906.5 630.5L911 633.4L915.9 631.4L914.5 636.5L918 640.6L912.7 640.9L909.9 645.4L908 640.4L902.8 639.2L906.9 635.8L906.5 630.5Z" fill="#FDFF9E" />
      <path d="M1193.5 182L1198 184.9L1202.9 182.9L1201.5 188.1L1205 192.1L1199.6 192.4L1196.8 196.9L1194.9 192L1189.7 190.7L1193.9 187.3L1193.5 182Z" fill="#FDFF9E" />
      <path d="M1138.7 375.6L1143.2 378.5L1148.1 376.5L1146.7 381.6L1150.2 385.7L1144.9 386L1142.1 390.5L1140.2 385.5L1135 384.3L1139.1 380.9L1138.7 375.6Z" fill="#FDFF9E" />
      <path d="M775.6 100.8L776.4 106.1L781.2 108.4L776.4 110.8L775.7 116.1L771.9 112.3L766.7 113.2L769.1 108.5L766.6 103.8L771.9 104.6L775.6 100.8Z" fill="#FDFF9E" />
      <path d="M443.6 366.5L448 369.4L453 367.4L451.6 372.5L455 376.6L449.7 376.9L446.9 381.4L445 376.4L439.8 375.2L444 371.8L443.6 366.5Z" fill="#FDFF9E" />
      <path d="M367.9 902.7L372.4 905.6L377.3 903.6L375.9 908.7L379.4 912.8L374 913.1L371.2 917.6L369.3 912.6L364.2 911.4L368.3 908L367.9 902.7Z" fill="#FDFF9E" />
      <path d="M659.2 832.9L663.6 835.8L668.6 833.7L667.2 838.9L670.6 843L665.3 843.2L662.5 847.8L660.6 842.8L655.4 841.5L659.6 838.2L659.2 832.9Z" fill="#FDFF9E" />
      <path d="M256.9 65.7L261.4 68.6L266.4 66.6L265 71.7L268.4 75.8L263.1 76.1L260.3 80.6L258.4 75.6L253.2 74.4L257.3 71L256.9 65.7Z" fill="#FDFF9E" />
      <path d="M224.8 373.2L224.4 378.6L228.5 381.9L223.3 383.2L221.4 388.1L218.6 383.6L213.3 383.2L216.8 379.2L215.4 374L220.3 376.1L224.8 373.2Z" fill="#FDFF9E" />
      <path d="M558.3 626.8L560 636.5L568.9 640.6L560.2 645.2L559 654.9L552 648.1L542.3 650L546.7 641.2L541.9 632.6L551.6 634L558.3 626.8Z" fill="#FDFF9E" />
      <path d="M922.6 910.1L924.2 919.8L933.1 924L924.4 928.5L923.3 938.3L916.2 931.4L906.6 933.3L910.9 924.5L906.2 915.9L915.9 917.3L922.6 910.1Z" fill="#FDFF9E" />
      <path d="M302.7 896.1L304.3 905.8L313.2 909.9L304.5 914.5L303.4 924.2L296.3 917.3L286.7 919.2L291 910.4L286.3 901.9L296 903.3L302.7 896.1Z" fill="#FDFF9E" />
      <path d="M1308.9 491.7L1310.6 501.4L1319.5 505.5L1310.8 510.1L1309.6 519.8L1302.6 513L1292.9 514.9L1297.3 506.1L1292.5 497.5L1302.2 498.9L1308.9 491.7Z" fill="#FDFF9E" />
      <path d="M1052.4 19L1054.1 28.7L1063 32.8L1054.3 37.4L1053.1 47.1L1046.1 40.3L1036.4 42.2L1040.8 33.4L1036 24.8L1045.7 26.2L1052.4 19Z" fill="#FDFF9E" />
      <path d="M104 511.2L106.4 520.7L115.6 524.2L107.2 529.4L106.8 539.2L99.3 532.9L89.8 535.5L93.5 526.4L88.1 518.1L97.9 518.9L104 511.2Z" fill="#FDFF9E" />
      <path d="M1122.1 526.2L1124.5 535.8L1133.7 539.2L1125.3 544.4L1124.9 554.2L1117.4 547.9L1107.9 550.5L1111.6 541.4L1106.2 533.2L1116 533.9L1122.1 526.2Z" fill="#FDFF9E" />
      <path d="M974.9 236L977.3 245.6L986.5 249L978.1 254.2L977.7 264L970.2 257.7L960.7 260.3L964.4 251.2L959 243L968.8 243.7L974.9 236Z" fill="#FDFF9E" />
      <path d="M716.4 284L718.1 293.7L727 297.8L718.3 302.4L717.1 312.1L710.1 305.3L700.5 307.2L704.8 298.4L700 289.8L709.7 291.2L716.4 284Z" fill="#FDFF9E" />
      <path d="M558.4 161L560.1 170.7L569 174.8L560.3 179.4L559.1 189.1L552.1 182.3L542.5 184.2L546.8 175.4L542 166.8L551.7 168.2L558.4 161Z" fill="#FDFF9E" />
      <path d="M758.4 502L760.1 511.7L769 515.8L760.3 520.4L759.1 530.1L752.1 523.3L742.5 525.2L746.8 516.4L742 507.8L751.7 509.2L758.4 502Z" fill="#FDFF9E" />
      <path d="M341.2 311.6L351.3 318.1L362.3 313.5L359.3 325L367 334.1L355.1 334.8L348.9 345L344.6 333.8L332.9 331.1L342.2 323.5L341.2 311.6Z" fill="#FDFF9E" />
      <path d="M95.8 63.7L95.1 75.5999L104.5 83L92.9 86L88.8 97.1999L82.4 87.0999L70.4 86.6999L78 77.5L74.8 66L85.9 70.4L95.8 63.7Z" fill="#FDFF9E" />
      <path d="M750.3 809.3L760.7 815.7L771.8 810.9L768.9 822.7L776.9 831.9L764.8 832.7L758.6 843.2L754 831.9L742.1 829.2L751.5 821.4L750.3 809.3Z" fill="#FDFF9E" />
      <path d="M679.2 -15L689.6 -8.59998L700.7 -13.4L697.8 -1.59998L705.8 7.60004L693.7 8.40002L687.5 18.9L682.9 7.60004L671 4.90002L680.4 -2.89996L679.2 -15Z" fill="#FDFF9E" />
      <path d="M188.18 101.597C189.98 106.897 192.18 112.097 194.68 116.997C207.28 116.097 219.88 113.997 232.68 110.297H232.781C229.981 110.297 227.281 110.197 224.581 110.097C212.281 109.297 199.98 106.397 188.18 101.597Z" fill="#247E73" />
      <path d="M333.88 30.7966C327.88 20.2966 302.98 33.5966 288.38 37.9966C253.58 47.8966 217.48 58.6966 181.88 62.2966C181.88 66.2966 181.98 70.3966 182.38 74.4966C183.28 83.9966 185.18 93.0966 188.18 101.697C199.98 106.497 212.28 109.397 224.68 110.097C227.38 110.197 230.08 110.297 232.88 110.297C259.28 102.897 281.981 87.7966 306.781 74.4966C322.981 64.8966 341.28 45.1966 333.88 30.7966Z" fill="#359E90" />
      <path d="M348.88 40.4966C354.18 20.7966 352.78 -0.70343 344.68 -20.2034C338.68 -16.8034 332.581 -13.9034 325.981 -11.6034C286.581 3.19657 247.081 -4.10343 207.781 -9.40343C191.781 10.3966 182.28 35.3966 181.88 62.2966C217.48 58.6966 253.48 47.8966 288.38 37.9966C303.08 33.6966 327.98 20.2966 333.88 30.7966C341.18 45.1966 322.98 64.8966 306.68 74.3966C281.88 87.6966 259.181 102.797 232.781 110.197C280.681 110.497 336.48 91.8966 348.88 40.4966Z" fill="#43BEAD" />
      <path d="M364.38 -32.8034C357.88 -28.4034 351.38 -24.1034 344.68 -20.3034C352.78 -0.803406 354.18 20.7966 348.88 40.3966C336.48 91.7966 280.68 110.397 232.88 110.197H232.781C220.081 113.897 207.381 115.997 194.781 116.897C197.981 123.097 201.68 128.997 205.88 134.497C208.08 137.397 210.38 140.197 212.88 142.797C258.28 137.997 303.28 130.297 342.68 103.197C370.08 84.5966 390.881 59.5966 399.081 27.7966C400.481 21.1966 401.281 14.3966 401.381 7.69659C392.281 -8.50341 379.58 -22.4034 364.38 -32.8034Z" fill="#359E90" />
      <path d="M324.281 -50.2034C317.581 -51.7034 310.681 -52.6034 303.581 -52.9034C298.481 -53.1034 293.281 -53.0034 288.081 -52.5034C255.281 -49.5034 226.881 -33.2034 207.781 -9.50343C247.181 -4.20343 286.581 3.09658 325.981 -11.7034C332.481 -14.0034 338.68 -16.9034 344.68 -20.3034C341.28 -28.4034 336.88 -36.2034 331.18 -43.3034C329.18 -45.9034 326.781 -48.2034 324.281 -50.2034Z" fill="#359E90" />
      <path d="M401.28 7.79657C401.18 14.4966 400.381 21.1966 398.981 27.8966C390.881 59.7966 369.981 84.7966 342.581 103.297C303.181 130.397 258.281 138.097 212.781 142.897C236.581 168.697 271.68 183.597 309.38 180.097C373.58 174.297 420.981 117.397 415.081 53.1966C413.581 36.7966 408.68 21.3966 401.28 7.79657Z" fill="#247E73" />
      <path d="M394.581 -2.90344C442.281 -20.4034 438.38 42.6966 321.88 72.5966C325.78 57.0966 339.281 54.2966 342.281 55.8966C344.481 37.6966 357.88 35.4966 367.68 43.7966C366.68 33.4966 372.281 30.9966 375.581 30.6966C372.981 20.0966 377.681 9.69656 393.581 16.7966C390.481 6.69656 396.381 2.69656 396.381 2.69656L394.581 -2.90344Z" fill="#D4D5D7" />
      <path d="M324.281 120.697C324.281 120.697 314.481 111.097 306.981 123.797C298.281 114.497 288.281 122.497 286.981 125.097C275.981 113.697 261.781 117.997 264.981 134.197C253.681 124.397 250.18 137.597 250.18 137.597C238.88 122.697 230.581 119.497 218.281 129.797C218.281 129.797 212.081 124.297 207.781 129.797C222.981 140.997 239.681 149.197 257.281 154.897C313.681 132.997 324.281 120.697 324.281 120.697Z" fill="#D4D5D7" />
      <path d="M205.481 134.197C201.381 130.497 197.981 124.297 196.181 120.397C195.681 119.997 195.181 119.597 194.781 119.097C195.281 119.497 195.781 119.997 196.181 120.397C195.781 119.497 195.381 118.697 195.181 118.097C145.181 141.197 202.681 175.697 256.381 155.097C256.681 154.997 256.981 154.897 257.281 154.797C239.681 149.197 222.981 140.897 207.781 129.697C206.881 130.797 206.181 132.197 205.481 134.197Z" fill="white" />
      <path d="M329.329 725.953C321.629 705.853 308.229 688.953 291.429 676.953C288.629 674.953 285.729 673.053 282.829 671.353C271.929 665.053 259.929 660.553 247.329 658.253C234.829 656.053 221.729 655.953 208.529 658.453C157.129 667.953 121.029 712.353 119.929 762.653C119.829 766.053 119.929 769.453 120.229 772.853C120.529 776.753 121.029 780.753 121.729 784.753C124.929 802.053 132.129 817.753 142.229 830.853C142.729 831.553 143.329 832.253 143.929 832.953C152.229 843.253 162.429 851.953 173.829 858.653C195.429 871.253 221.529 876.453 248.129 871.553C299.529 862.053 335.729 817.653 336.729 767.353C336.829 760.053 336.329 752.653 334.929 745.253C333.529 738.553 331.629 732.053 329.329 725.953Z" fill="#D0591C" />
      <path d="M231.129 818.753C262.329 806.453 284.029 778.253 286.329 745.253C289.029 711.153 275.129 677.153 247.329 658.253C234.829 656.053 221.729 655.953 208.529 658.453C157.129 667.953 121.029 712.353 119.929 762.653C119.829 766.053 119.929 769.453 120.229 772.853C120.529 776.753 121.029 780.753 121.729 784.753C124.929 802.053 132.129 817.753 142.229 830.853C142.729 831.553 143.329 832.253 143.929 832.953C148.329 833.953 152.929 834.453 157.829 834.253C183.529 833.153 206.729 827.953 231.129 818.753Z" fill="#43BEAD" />
      <path d="M329.329 725.953C321.629 705.853 308.229 688.953 291.429 676.953C288.629 674.953 285.729 673.053 282.829 671.353C271.929 665.053 259.929 660.553 247.329 658.253C275.129 677.153 289.029 711.153 286.329 745.253C284.029 778.253 262.329 806.453 231.129 818.753C206.829 827.953 183.629 833.153 157.729 834.253C152.829 834.453 148.229 833.953 143.829 832.953C152.129 843.253 162.329 851.953 173.729 858.653C195.329 871.253 221.429 876.453 248.029 871.553C299.429 862.053 335.629 817.653 336.629 767.353C336.729 760.053 336.229 752.653 334.829 745.253C333.529 738.553 331.629 732.053 329.329 725.953Z" fill="#247E73" />
      <path d="M142.129 830.853C114.629 837.653 94.8291 836.753 89.1291 826.753C82.9291 815.653 95.4291 795.553 120.129 772.953C119.829 769.553 119.729 766.053 119.829 762.753C84.9291 791.153 61.7291 819.253 56.2291 840.353C54.2291 848.153 54.6291 854.953 57.7291 860.553C69.3291 881.253 115.429 879.153 173.529 858.653C200.129 849.353 229.229 836.153 258.729 819.653C288.229 803.153 314.629 785.153 336.429 767.353C340.429 764.153 344.229 760.953 347.829 757.653C307.029 774.253 268.129 789.253 226.329 797.353C195.429 813.453 165.929 824.953 142.129 830.853Z" fill="#FEBC11" />
      <path d="M398.629 669.553C395.929 664.653 391.229 661.053 385.029 658.653C364.729 650.853 327.329 655.753 282.829 671.353C285.829 673.053 288.629 674.953 291.429 676.953C323.629 667.653 347.229 667.553 353.529 678.653C359.129 688.653 349.529 706.053 329.429 725.953C309.229 745.953 278.429 768.653 241.829 789.053C236.729 791.953 231.629 794.653 226.529 797.253C268.329 789.153 307.229 774.153 348.029 757.553C388.329 722.153 409.229 688.553 398.629 669.553Z" fill="#FAA21B" />
      <path d="M190.529 840.553C48.0291 896.553 56.1291 841.653 56.3291 840.253C54.3291 848.053 54.7291 854.853 57.8291 860.453C69.4291 881.153 115.529 879.053 173.629 858.553C200.229 849.253 229.329 836.053 258.829 819.553C288.329 803.053 314.729 785.053 336.529 767.253C340.529 764.053 344.329 760.853 347.929 757.553C340.429 760.553 333.029 763.553 325.629 766.453C291.629 792.753 245.529 818.953 190.529 840.553Z" fill="#FAA21B" />
      <path d="M398.629 669.553C395.929 664.653 391.229 661.053 385.029 658.653C405.129 681.653 381.129 724.153 325.729 766.653C333.129 763.753 340.529 760.753 348.029 757.753C388.329 722.153 409.229 688.553 398.629 669.553Z" fill="#E7811D" />
      <path d="M79.7291 828.253C70.7291 866.453 162.329 843.953 214.729 813.153C154.929 845.953 72.4291 855.653 79.7291 828.253Z" fill="#FAA21B" />
      <g opacity="0.6">
        <path d="M1379.5 130.8C1379.3 129.1 1379 127.4 1378.7 125.8C1378 122.4 1377.1 119 1375.9 115.8C1375.2 113.8 1374.4 111.8 1373.5 109.8C1372.6 107.8 1371.6 105.8 1370.5 103.9C1369.2 101.6 1367.7 99.3 1366.2 97.2C1362.3 91.8 1357.8 87 1352.7 82.9C1351 81.5 1349.3 80.2 1347.5 79C1344.2 76.8 1340.8 74.8 1337.2 73.2C1332.7 71.1 1327.9 69.4 1322.9 68.2C1318 67 1313 66.4 1307.8 66.2C1307.1 66.2 1306.3 66.2 1305.6 66.2C1273.2 66.2 1245.6 86.9 1235.3 115.7C1232.5 123.6 1231 132 1231 140.8C1231 141.4 1231 141.9 1231 142.5C1231.1 145.7 1231.3 148.8 1231.8 151.9C1232.7 157.9 1234.3 163.7 1236.5 169.1C1237.6 171.8 1238.8 174.4 1240.2 176.9C1241.2 178.7 1242.3 180.5 1243.4 182.2C1244.7 184.2 1246.1 186.1 1247.6 187.9C1249.2 189.9 1250.9 191.7 1252.7 193.5C1255.1 195.9 1257.6 198.1 1260.3 200.1C1263.4 202.5 1266.7 204.6 1270.2 206.5C1275 209.1 1280.2 211.2 1285.6 212.7C1292 214.5 1298.7 215.4 1305.6 215.4C1333.8 215.4 1358.3 199.8 1371 176.8C1375.3 169 1378.2 160.4 1379.5 151.2C1380 147.8 1380.2 144.3 1380.2 140.8C1380.2 137.3 1380 134 1379.5 130.8Z" fill="#F04C23" />
        <path d="M1317.9 130.4C1340.4 135.5 1357.5 123.3 1373.5 109.7C1372.6 107.7 1371.6 105.7 1370.5 103.8C1353.1 114.8 1332.9 121.6 1311.9 120.4C1310.9 119.4 1307.9 121.4 1306.9 123.4C1302.9 129.4 1301.9 137.4 1297.9 141.4C1280 155.5 1263 172.3 1240.3 176.7C1241.3 178.5 1242.4 180.3 1243.5 182C1271.2 173.3 1300.6 162.8 1312.9 133.4C1312.9 132.4 1315.9 129.4 1317.9 130.4Z" fill="#F26722" />
        <path d="M1370.5 103.8C1369.2 101.5 1367.7 99.2 1366.2 97.1C1348.8 105.8 1329.5 111.1 1309.9 113.4C1307.9 113.4 1303.9 115.4 1301.9 118.4C1299.9 124.4 1299.9 133.4 1295.9 137.4C1278.9 152.8 1258.5 163 1236.5 168.9C1237.6 171.6 1238.8 174.2 1240.2 176.7C1263 172.3 1280 155.5 1297.8 141.4C1301.8 137.4 1302.8 129.4 1306.8 123.4C1307.8 121.4 1310.8 119.4 1311.8 120.4C1332.9 121.6 1353.1 114.8 1370.5 103.8Z" fill="#F04C23" />
        <path d="M1352.7 82.7C1341.2 89.2 1328.5 94 1314.9 96.3C1309.9 97.3 1304.9 100.3 1302.9 104.3C1287.7 131.8 1260.9 146.7 1231.8 151.6C1232.7 157.6 1234.3 163.4 1236.5 168.8C1258.5 162.8 1278.8 152.7 1295.9 137.3C1299.9 133.3 1299.9 124.3 1301.9 118.3C1303.9 115.3 1307.9 113.3 1309.9 113.3C1329.5 111 1348.8 105.7 1366.2 97C1362.3 91.7 1357.8 86.9 1352.7 82.7Z" fill="#F26722" />
        <path d="M1352.7 82.7C1351 81.3 1349.3 80 1347.5 78.8C1332.9 88.3 1316.2 94.3 1297.9 94.3C1282.7 119.2 1257.8 132.7 1231 142.2C1231.1 145.4 1231.3 148.5 1231.8 151.6C1260.9 146.7 1287.8 131.8 1302.9 104.3C1304.9 100.3 1309.9 97.3 1314.9 96.3C1328.5 94 1341.1 89.3 1352.7 82.7Z" fill="#F04C23" />
        <path d="M1337.2 73C1327.7 76.5 1317.4 77.7 1307.9 84.3C1281.9 102.3 1256.9 114.3 1231.9 132.3C1256.9 114.3 1281.9 102.3 1307.9 84.3C1317.3 77.8 1327.6 76.5 1337.2 73C1332.7 70.9 1327.9 69.2 1322.9 68C1313.4 71.7 1303.8 74.9 1297 81.4C1285 93.4 1269 98.4 1254 105.4C1247.8 108.8 1241.2 111.8 1235.4 115.5C1232.6 123.4 1231.1 131.8 1231.1 140.6C1231.1 141.2 1231.1 141.7 1231.1 142.3C1257.9 132.7 1282.8 119.3 1298 94.4C1316.2 94.4 1333 88.4 1347.6 78.9C1344.2 76.6 1340.7 74.7 1337.2 73Z" fill="#F26722" />
        <path d="M1307.8 66C1290 83.5 1264.8 90.9 1241.9 102.3C1264.8 90.9 1290 83.5 1307.8 66C1307.1 66 1306.3 66 1305.6 66C1273.2 66 1245.6 86.7 1235.3 115.5C1241.1 111.7 1247.7 108.8 1253.9 105.4C1268.9 98.4 1284.9 93.4 1296.9 81.4C1303.8 75 1313.4 71.7 1322.8 68C1318 66.8 1312.9 66.2 1307.8 66Z" fill="#F04C23" />
        <path d="M1375.9 115.7C1369 121.8 1361.5 127.3 1352.9 131.4C1340.9 136.4 1345.9 153.4 1334.9 161.4C1325.9 169.4 1311.9 162.4 1302.9 168.4C1285.2 178.7 1265.7 180.2 1247.7 187.7C1249.3 189.7 1251 191.5 1252.8 193.3C1278.9 183.4 1305 170.5 1333.9 173.4C1337.9 173.4 1342.9 170.4 1343.9 166.4C1347.6 146 1362.5 135.1 1378.7 125.8C1378 122.3 1377.1 118.9 1375.9 115.7Z" fill="#F26722" />
        <path d="M1378.7 125.7C1362.5 135 1347.6 145.9 1343.9 166.3C1342.9 170.3 1337.9 173.3 1333.9 173.3C1305 170.4 1278.8 183.3 1252.8 193.2C1255.2 195.6 1257.7 197.8 1260.4 199.8C1283.1 188.2 1305.3 173.7 1331 184.3C1335 186.3 1341 186.3 1343 182.3C1351.1 161.3 1360.5 140.9 1379.6 130.7C1379.3 129.1 1379 127.4 1378.7 125.7Z" fill="#F04C23" />
        <path d="M1379.5 130.8C1360.3 141 1350.9 161.4 1342.9 182.4C1340.9 186.4 1334.9 186.4 1330.9 184.4C1305.2 173.8 1283 188.3 1260.3 199.9C1263.4 202.3 1266.7 204.4 1270.2 206.3C1283 203.2 1290 190.3 1300.9 186.4C1314.9 180.4 1328.9 188.4 1343.9 186.4C1346.9 185.4 1350.9 184.4 1352.9 182.4C1357.9 176.4 1355.9 167.4 1360.9 163.4C1366.9 158.7 1373.2 154.8 1379.5 151C1380 147.6 1380.2 144.1 1380.2 140.6C1380.2 137.3 1380 134 1379.5 130.8Z" fill="#F26722" />
        <path d="M1360.9 163.4C1355.9 167.4 1357.9 176.4 1352.9 182.4C1350.9 184.4 1346.9 185.4 1343.9 186.4C1328.9 188.4 1314.9 180.4 1300.9 186.4C1290 190.4 1283 203.2 1270.2 206.3C1275 208.9 1280.2 211 1285.6 212.5C1287 212.1 1288.5 211.8 1289.9 211.3C1295.9 209.3 1300.9 204.3 1305.9 202.3C1328.7 194.2 1351.4 189.3 1371 176.5C1375.3 168.7 1378.2 160.1 1379.5 150.9C1373.2 154.8 1366.9 158.7 1360.9 163.4Z" fill="#F04C23" />
        <path d="M1289.9 211.4C1288.5 211.8 1287 212.2 1285.6 212.6C1292 214.4 1298.7 215.3 1305.6 215.3C1333.8 215.3 1358.3 199.7 1371 176.7C1351.5 189.5 1328.7 194.3 1305.9 202.5C1300.9 204.4 1295.9 209.4 1289.9 211.4Z" fill="#F26722" />
        <path d="M1334.9 141.4C1326.9 143.4 1310.9 145.4 1313.9 154.4C1314.8 156.1 1320.1 154.1 1324.1 152.3C1328.1 149.3 1334.9 148.3 1334.9 141.4Z" fill="#F26722" />
        <path d="M1373.5 109.7C1357.5 123.3 1340.4 135.5 1317.9 130.4C1315.9 129.4 1312.9 132.4 1312.9 133.4C1300.6 162.8 1271.2 173.3 1243.5 182C1244.8 184 1246.2 185.9 1247.7 187.7C1265.7 180.2 1285.2 178.7 1302.9 168.4C1311.9 162.4 1325.9 169.4 1334.9 161.4C1345.9 153.4 1340.9 136.4 1352.9 131.4C1361.6 127.3 1369 121.8 1375.9 115.7C1375.2 113.6 1374.4 111.6 1373.5 109.7ZM1330.9 153.4C1337.9 151.4 1344.9 142.4 1338.9 138.4C1327.9 132.4 1299.9 148.4 1305.9 157.4C1309.9 163.4 1324.9 156.4 1334.9 151.4C1324.9 156.4 1309.9 163.4 1305.9 157.4C1299.9 148.4 1327.9 132.4 1338.9 138.4C1344.9 142.4 1337.9 151.4 1330.9 153.4ZM1325.9 151.4C1325.3 151.7 1324.7 152 1324.1 152.3C1324 152.3 1324 152.4 1323.9 152.4C1324 152.4 1324 152.3 1324.1 152.3C1320.1 154.2 1314.8 156.1 1313.9 154.4C1310.9 145.4 1326.9 143.4 1334.9 141.4C1334.9 148.3 1328.1 149.4 1324.1 152.3C1324.7 151.9 1325.3 151.6 1325.9 151.4Z" fill="#F04C23" />
      </g>
      <path d="M475.129 710.953C451.529 706.453 458.029 676.353 480.429 678.953C502.329 681.453 498.129 715.353 475.129 710.953Z" fill="#D0591C" />
      <path d="M52.8801 704.159C29.2801 699.659 35.7801 669.559 58.1801 672.159C80.0801 674.659 75.8801 708.559 52.8801 704.159Z" fill="#D0591C" />
      <path d="M993.6 833C995.6 812 1002.6 792 1010.6 772C1018.6 752 1026.6 731 1040.6 714C1083.6 664 1132.6 619 1198.6 607C1213.5 604.6 1228.3 603.8 1242.9 603.7C1233.5 602.6 1223.9 602 1214.1 602C1080.9 602 973 710 973 843.1C973 881.9 982.2 918.6 998.5 951.1C996.3 936.4 994.5 921.5 990.6 907C983.6 882 990.6 858 993.6 833Z" fill="#D5581D" />
      <path d="M1246 604.1C1245 604 1243.9 603.8 1242.9 603.7C1228.2 603.8 1213.5 604.6 1198.6 607C1132.6 619 1083.6 664 1040.6 714C1026.6 731 1018.6 752 1010.6 772C1002.6 792 995.6 812 993.6 833C990.6 858 983.6 882 990.6 907C994.5 921.6 996.3 936.4 998.5 951.1C1002 958 1005.7 964.7 1009.8 971.2C1052.5 1039.1 1128 1084.3 1214.1 1084.3C1347.3 1084.3 1455.2 976.3 1455.2 843.2C1455.3 720.8 1364.2 619.7 1246 604.1Z" fill="#D5581D" />
      <path d="M993.6 833C995.6 812 1002.6 792 1010.6 772C1018.6 752 1026.6 731 1040.6 714C1083.6 664 1132.6 619 1198.6 607C1213.5 604.6 1228.3 603.8 1242.9 603.7C1233.5 602.6 1223.9 602 1214.1 602C1080.9 602 973 710 973 843.1C973 881.9 982.2 918.6 998.5 951.1C996.3 936.4 994.5 921.5 990.6 907C983.6 882 990.6 858 993.6 833Z" fill="#F79C1F" />
      <path d="M1277.91 622.2C1268.01 615 1256.31 610.8 1246.41 604.4C1245.41 604.3 1244.31 604.1 1243.31 604C1228.61 604.1 1213.91 604.9 1199.01 607.3C1133.01 619.3 1084.01 664.3 1041.01 714.3C1027.01 731.3 1019.01 752.3 1011.01 772.3C1003.01 792.3 996.01 812.3 994.01 833.3C991.01 858.3 984.01 882.3 991.01 907.3C994.91 921.9 996.71 936.7 998.91 951.4C1002.41 958.3 1006.11 965 1010.21 971.5C1017.31 973.7 1024.61 975.6 1032.11 976.9C1105.21 987.5 1186.21 992.8 1246.01 939.7C1288.51 901.2 1321.71 858.7 1335.01 802.9C1349.61 737.8 1333.71 666.1 1277.91 622.2Z" fill="#F47920" />
      <path d="M1246 604.1C1255.8 610.6 1267.6 614.7 1277.5 621.9C1333.3 665.7 1349.2 737.5 1334.6 802.6C1321.3 858.4 1288.1 900.9 1245.6 939.4C1185.8 992.5 1104.8 987.2 1031.7 976.6C1024.2 975.3 1016.9 973.5 1009.8 971.2C1052.5 1039.1 1128 1084.3 1214.1 1084.3C1347.3 1084.3 1455.2 976.3 1455.2 843.2C1455.3 720.8 1364.2 619.7 1246 604.1Z" fill="#D5581D" />
      <path d="M1082.4 665.9C1072.9 659.8 1054.9 671.1 1042 691C1029.1 710.9 1026.4 732.1 1035.9 738.1C1037.2 738.9 1038.6 739.4 1040.2 739.6C1037.1 722.4 1046.9 702 1058.2 689.6C1066.6 681.2 1076.2 675 1086.7 671.4C1085.9 669.1 1084.4 667.1 1082.4 665.9Z" fill="#B33F15" />
      <path d="M1040.3 739.6C1050.3 740.9 1065.3 730.2 1076.3 713C1086.5 697.2 1090.3 680.7 1086.7 671.5C1076.2 675.1 1066.7 681.3 1058.2 689.7C1047 702.1 1037.2 722.4 1040.3 739.6Z" fill="#8A2303" />
      <path d="M1411.7 912.8C1413.4 902.9 1412.9 891.4 1408.6 882.2C1398.9 884.5 1387.7 897.7 1381.1 915.8C1375.1 932.3 1374.6 948.2 1379.1 956.9C1396.2 949.4 1409.4 933 1411.7 912.8Z" fill="#731700" />
      <path d="M1414.8 882.5C1412.8 881.8 1410.7 881.7 1408.5 882.2C1412.9 891.4 1413.3 902.8 1411.6 912.8C1409.4 933 1396.2 949.4 1378.9 957C1380.5 960 1382.6 962.2 1385.3 963.2C1395.9 967.1 1411 952.1 1419.1 929.8C1427.4 907.6 1425.4 886.4 1414.8 882.5Z" fill="#B33F15" />
      <path d="M1131.3 674C1131.1 670.8 1130 668.3 1128 667C1122.5 663.6 1112.3 670.2 1105.1 681.7C1097.9 693.2 1096.5 705.3 1102 708.7C1103.2 709.5 1104.7 709.7 1106.3 709.5C1107.7 693.2 1117.7 681.1 1131.3 674Z" fill="#B33F15" />
      <path d="M1106.3 709.5C1111.9 708.9 1119.3 702.9 1124.9 694C1129.4 686.8 1131.6 679.4 1131.3 674C1117.7 681.1 1107.7 693.2 1106.3 709.5Z" fill="#8A2303" />
      <path d="M1334.6 741.5C1329.8 731.9 1319.5 724.5 1306.8 725.1C1305.5 726.2 1304.4 727.4 1303.5 728.9C1296.8 739.3 1302.3 754.7 1315.7 763.3C1323.9 768.5 1333.1 770 1340.6 768C1340.8 758.9 1338.8 749.8 1334.6 741.5Z" fill="#8A2303" />
      <path d="M1339.8 725.5C1328.2 718.1 1314.6 718.2 1306.7 725.1C1319.4 724.4 1329.7 731.9 1334.5 741.5C1338.7 749.9 1340.6 758.9 1340.4 768C1345.2 766.7 1349.3 764 1351.9 759.9C1358.7 749.5 1353.3 734.1 1339.8 725.5Z" fill="#B33F15" />
      <path d="M1183.2 906.2C1191.5 900.3 1195.3 892.5 1195.9 884C1193.4 879.1 1189.4 874.6 1184.2 871.2C1170.8 862.6 1154.2 864.6 1147.2 875.5C1141.3 884.7 1144 897.2 1152.8 906.1C1162.8 911.9 1174.2 913.5 1183.2 906.2Z" fill="#8A2303" />
      <path d="M1195.9 884C1195.3 892.5 1191.5 900.3 1183.2 906.2C1174.2 913.5 1162.8 911.9 1152.8 906.1C1154.5 907.9 1156.5 909.5 1158.7 910.9C1172.1 919.5 1188.7 917.5 1195.7 906.6C1200 899.9 1199.7 891.5 1195.9 884Z" fill="#B33F15" />
      <path d="M1219.3 858.5C1218.6 858.1 1217.9 857.7 1217.1 857.5C1219.4 860 1220.1 863.2 1219 866.3C1216.4 870.9 1212.5 873.2 1208.1 873.9C1208.4 874.1 1208.7 874.3 1209 874.5C1213.6 877.4 1219.6 876.2 1222.4 871.8C1225.3 867.4 1223.9 861.5 1219.3 858.5Z" fill="#B33F15" />
      <path d="M1219.1 866.3C1220.2 863.1 1219.5 860 1217.2 857.5C1213 856.1 1208.4 857.5 1206 861.3C1203.4 865.4 1204.4 870.9 1208.3 874C1212.5 873.2 1216.4 870.9 1219.1 866.3Z" fill="#8A2303" />
      <path d="M1215.1 737.3C1213.9 741.1 1215.6 745.6 1219.5 748.1C1222.8 750.2 1226.8 750.3 1229.8 748.6C1227 742 1222.1 737.1 1215.1 737.3Z" fill="#8A2303" />
      <path d="M1232.6 746C1235.2 741.9 1233.6 736.2 1229.1 733.3C1224.5 730.4 1218.7 731.3 1216.1 735.4C1215.7 736 1215.4 736.6 1215.2 737.3C1222.1 737.1 1227 742.1 1229.9 748.6C1230.9 747.9 1231.9 747.1 1232.6 746Z" fill="#B33F15" />
      <path d="M1098.3 988.4C1098.7 985.7 1096.1 981.5 1091.7 978.2C1088.4 975.7 1084.8 974.3 1082.2 974.3C1084.8 982.5 1090.9 986.4 1098.3 988.4Z" fill="#731700" />
      <path d="M1082.1 974.4C1080.7 974.4 1079.5 974.8 1078.8 975.7C1077 978.2 1079.7 983.3 1084.9 987.2C1090.1 991.1 1095.8 992.2 1097.7 989.8C1098 989.4 1098.2 989 1098.2 988.5C1090.9 986.4 1084.8 982.5 1082.1 974.4Z" fill="#B33F15" />
      <path d="M1326.8 697.2C1327.5 696.5 1328.1 695.6 1328.3 694.6C1329.2 690.5 1324.9 685.9 1318.5 684.5C1312.2 683.1 1306.3 685.3 1305.3 689.4C1305.2 689.8 1305.2 690.2 1305.2 690.6C1313.5 687.5 1321.5 690.8 1326.8 697.2Z" fill="#B33F15" />
      <path d="M1305.2 690.5C1305.2 694.3 1309.4 698.1 1315.1 699.4C1319.9 700.5 1324.5 699.5 1326.8 697.1C1321.5 690.8 1313.5 687.5 1305.2 690.5Z" fill="#8A2303" />
      <path d="M1029.9 822.1C1028.7 821.7 1027.4 821.7 1026.2 822.1C1022.2 823.6 1020.9 829.7 1023.2 835.8C1025.5 841.9 1030.6 845.6 1034.5 844.1C1035 843.9 1035.4 843.7 1035.8 843.3C1032 836.9 1029.7 830 1029.9 822.1Z" fill="#B33F15" />
      <path d="M1037.5 830.4C1035.9 826.1 1032.9 823 1029.8 822.1C1029.7 830 1031.9 836.9 1035.8 843.4C1038.7 841.2 1039.5 835.8 1037.5 830.4Z" fill="#8A2303" />
    </g>
  </g>
  <defs>
    <clipPath id="clip0">
      <rect width="1400" height="980" fill="white" />
    </clipPath>
  </defs>
</svg>
